<?xml version="1.0" encoding="UTF-8" standalone="no"?>
<!-- Created with Inkscape (http://www.inkscape.org/) -->

<svg
   width="64"
   height="64"
   viewBox="0 0 16.933333 16.933333"
   version="1.1"
   id="svg5"
   inkscape:version="1.2.1 (9c6d41e410, 2022-07-14)"
   sodipodi:docname="change_algorithm.svg"
   xmlns:inkscape="http://www.inkscape.org/namespaces/inkscape"
   xmlns:sodipodi="http://sodipodi.sourceforge.net/DTD/sodipodi-0.dtd"
   xmlns="http://www.w3.org/2000/svg"
   xmlns:svg="http://www.w3.org/2000/svg">
  <sodipodi:namedview
     id="namedview7"
     pagecolor="#ffffff"
     bordercolor="#000000"
     borderopacity="0.25"
     inkscape:showpageshadow="2"
     inkscape:pageopacity="0.0"
     inkscape:pagecheckerboard="0"
     inkscape:deskcolor="#d1d1d1"
     inkscape:document-units="px"
     showgrid="true"
     inkscape:zoom="8"
     inkscape:cx="20"
     inkscape:cy="38.875"
     inkscape:window-width="1920"
     inkscape:window-height="1017"
     inkscape:window-x="-8"
     inkscape:window-y="-8"
     inkscape:window-maximized="1"
     inkscape:current-layer="layer1">
    <inkscape:grid
       type="xygrid"
       id="grid1775"
       empspacing="4"
       visible="true" />
  </sodipodi:namedview>
  <defs
     id="defs2">
    <inkscape:perspective
       sodipodi:type="inkscape:persp3d"
       inkscape:vp_x="0 : 8.4666665 : 1"
       inkscape:vp_y="0 : 1000 : 0"
       inkscape:vp_z="16.933333 : 8.4666665 : 1"
       inkscape:persp3d-origin="8.4666665 : 5.6444443 : 1"
       id="perspective3517" />
  </defs>
  <g
     inkscape:label="Layer 1"
     inkscape:groupmode="layer"
     id="layer1">
    <g
       id="g10057">
      <path
         id="path3022"
         style="fill:#333333;fill-opacity:1;stroke:none;stroke-width:0.529166;stroke-dasharray:none;stroke-opacity:1"
         d="M 8.4666665 2.5e-08 C 3.79067 4.1159809e-07 4.1159809e-07 3.79067 2.5e-08 8.4666665 C 4.1159809e-07 13.142662 3.79067 16.933333 8.4666665 16.933333 C 13.142662 16.933333 16.933333 13.142662 16.933333 8.4666665 C 16.933333 3.79067 13.142662 4.1159809e-07 8.4666665 2.5e-08 z M 8.9958332 5.8208332 L 9.7895832 5.8208332 L 7.9374999 11.1125 L 7.1437499 11.1125 L 8.9958332 5.8208332 z M 6.0854166 6.6145832 L 6.8791666 6.6145832 L 5.8208332 8.4666665 L 6.8791666 10.31875 L 6.0854166 10.31875 L 5.0270833 8.4666665 L 6.0854166 6.6145832 z M 10.054166 6.6145832 L 10.847916 6.6145832 L 11.90625 8.4666665 L 10.847916 10.31875 L 10.054166 10.31875 L 11.1125 8.4666665 L 10.054166 6.6145832 z " />
      <path
         style="fill:#008000;stroke-width:0.529167"
         d="M 6.3499999,6.3499999 V 11.1125"
         id="path552" />
    </g>
  </g>
</svg>
