<?xml version="1.0" encoding="UTF-8" standalone="no"?>
<!-- Created with Inkscape (http://www.inkscape.org/) -->

<svg
   width="64"
   height="64"
   viewBox="0 0 16.933333 16.933333"
   version="1.1"
   id="svg5"
   xmlns="http://www.w3.org/2000/svg"
   xmlns:svg="http://www.w3.org/2000/svg">
  <defs
     id="defs2" />
  <g
     id="layer1">
    <g
       id="g10057">
      <path
         id="path3022"
         style="fill:#333333;fill-opacity:1;stroke:none;stroke-width:0.529166;stroke-dasharray:none;stroke-opacity:1"
         d="M 8.4666665 0 C 3.79067 3.8659809e-07 3.8659809e-07 3.79067 0 8.4666665 C 3.8659809e-07 13.142662 3.79067 16.933333 8.4666665 16.933333 C 13.142662 16.933333 16.933333 13.142662 16.933333 8.4666665 C 16.933333 3.79067 13.142662 3.8659809e-07 8.4666665 0 z M 8.4749347 5.2916666 A 3.1750002 3.1749995 0 0 1 11.597225 7.9374998 L 12.435416 7.9374998 L 11.1125 9.5249998 L 9.7895831 7.9374998 L 10.516154 7.9374998 A 2.1166663 2.1166663 0 0 0 8.4666665 6.3499999 A 2.1166663 2.1166663 0 0 0 6.3499999 8.4666665 A 2.1166663 2.1166663 0 0 0 8.4547809 10.582816 L 8.4485797 11.641666 A 3.1750002 3.1749995 0 0 1 5.2916666 8.4532306 A 3.1750002 3.1749995 0 0 1 8.4749347 5.2916666 z " />
    </g>
  </g>
</svg>
